<?xml version="1.0" encoding="UTF-8"?>
<svg xmlns="http://www.w3.org/2000/svg"
     width="1600"
     height="1200"
     viewBox="0 0 1600 1200">
  <defs>
    <g id="cloud">
      <path fill="#fff"
            transform="translate(-105.83333 -41.010417)"
            d="m 105.9902,101.78578 c 2.82413,-7.160553 5.90481,-9.405533 13.30313,-9.405533 6.26278,0 15.10715,6.52695 22.49131,6.52695 12.14007,0 22.52797,-24.78076 35.41897,-24.78076 8.26025,0 9.57438,4.25528 12.57811,4.25528 6.88355,0 12.86769,-12.987631 23.5059,-12.987631 9.11118,0 13.60267,8.857501 25.36727,8.857501 9.01119,0 10.88852,-5.631988 10.88852,-10.763359 0,-5.131369 -3.50435,-8.760876 -7.88479,-8.760876 -2.56569,0 -4.00496,1.06382 -3.0663,4.192706 2.00248,-2.753418 7.25901,-0.08479 7.25901,4.881059 0,4.506883 -3.06631,6.883546 -6.57066,6.883546 -5.19395,0 -12.6407,-4.505594 -12.6407,-12.140071 0,-11.764606 9.76212,-17.459175 19.46166,-17.459175 29.09863,0 24.21757,24.905919 33.54164,26.032317 2.3209,-11.536845 13.65896,-13.493149 22.45542,-13.493149 6.84949,0 19.35722,4.056814 19.53421,17.49812 5.25653,-8.135099 14.01372,-7.353798 17.39292,-7.353798 9.57405,0 18.77699,8.72943 18.77699,18.86809 0,13.7671 -8.93896,20.812453 -21.32934,20.812453 -4.81848,0 -9.02176,-2.44237 -9.02176,-6.803943 0,-2.5031 0.0539,-5.21614 4.44395,-7.75074 -9.13636,1.25156 -7.86333,7.38525 -7.86333,8.76195 0,1.37671 4.22752,10.618053 4.22752,15.739443 0,11.67027 -4.16049,21.13738 -17.0515,21.13738 -8.51034,0 -13.72284,-5.62441 -13.72284,-11.50671 0,-5.8823 4.38857,-8.2249 7.62689,-8.2249 1.60811,0 4.8537,0.63892 5.89513,3.0861 0.0864,0.20297 -0.01,0.37172 -0.28899,0.34247 -3.46703,-0.36302 -4.16957,1.8765 -4.10428,3.07951 0.12003,2.21177 2.56573,3.5047 5.06879,3.50435 2.50311,-3.5e-4 5.69457,-2.69084 5.69457,-7.07128 0,-4.38043 -4.88106,-9.44923 -12.14007,-9.44923 -7.25901,0 -13.14131,6.71258 -13.14131,13.95483 0,10.87163 -3.59798,22.1795 -20.3192,22.1795 -17.08371,0 -23.32261,-11.26735 -23.32261,-26.91146 0,-19.430663 6.57587,-25.722803 21.84483,-25.722803 8.62682,0 11.88976,4.06756 11.88976,13.141323 0,11.32656 -5.01492,14.89004 -8.10305,14.89004 -0.88934,0 -2.18737,-0.27246 -2.62986,-1.29019 -1.91912,2.33567 0.97425,4.13361 4.58933,4.13361 4.74148,0 11.29089,-4.29111 11.29089,-21.98353 0,-11.329653 -10.42846,-14.563293 -24.37982,-14.244403 -22.49838,0.51425 -17.44648,25.140453 -20.74879,27.047043 -3.30231,1.90659 -14.46075,0.0749 -14.46075,5.42027 0,3.22645 0.60431,6.46037 4.58673,6.46037 3.76989,0 5.40095,-4.48984 2.5735,-7.31729 -0.29124,-0.29124 -0.24639,-0.42701 0.16572,-0.41114 7.36427,0.28362 7.86983,3.53628 7.86983,8.91741 0,5.5502 -6.89244,10.5135 -13.73349,10.5135 -9.46931,0 -22.37378,-4.42015 -22.37378,-25.2927 0,-13.363233 -7.89215,-17.818513 -19.58542,-17.818513 -10.59831,0 -11.72602,7.607163 -11.72602,11.106523 0,1.87235 1.28323,5.61964 6.23913,5.61964 4.20366,0 5.37247,-3.24982 5.37247,-5.41803 0,-1.44362 -0.50393,-4.16595 -2.46541,-4.69152 -1.55191,-0.41584 -1.15005,-1.063003 -0.71092,-1.275533 6.71971,-3.25214 13.76574,3.252933 13.76574,9.815433 0,6.05269 -4.27675,16.08335 -15.51939,16.08335 -15.31019,0 -14.51371,-17.69964 -24.86799,-17.69964 -5.34808,0 -7.50825,4.77891 -15.0447,4.77891 -11.41627,0 -19.14494,-13.597723 -25.79671,-13.597723 -2.33391,0 -5.72239,-0.0509 -10.50606,3.104653 z"/>
    </g>
  </defs>
  <use href="#cloud" transform="translate(975.10 284.70) scale(1.1458)"/>
  <use href="#cloud" transform="translate(947.49 10.43) scale(1.1360)"/>
  <use href="#cloud" transform="translate(818.83 -115.09) scale(-1.1349 1.1349)"/>
  <use href="#cloud" transform="translate(818.83 1084.91) scale(-1.1349 1.1349)"/>
  <use href="#cloud" transform="translate(1587.52 580.52) scale(-1.1083 1.1083)"/>
  <use href="#cloud" transform="translate(766.07 951.99) scale(1.0923)"/>
  <use href="#cloud" transform="translate(232.87 246.62) scale(-1.0530 1.0530)"/>
  <use href="#cloud" transform="translate(1832.87 246.62) scale(-1.0530 1.0530)"/>
  <use href="#cloud" transform="translate(384.68 385.48) scale(0.9665)"/>
  <use href="#cloud" transform="translate(73.60 887.40) scale(0.9526)"/>
  <use href="#cloud" transform="translate(689.75 153.72) scale(-0.9215 0.9215)"/>
  <use href="#cloud" transform="translate(930.96 477.57) scale(-0.9079 0.9079)"/>
  <use href="#cloud" transform="translate(292.56 616.30) scale(0.8972)"/>
  <use href="#cloud" transform="translate(846.54 51.71) scale(-0.8082 0.8082)"/>
  <use href="#cloud" transform="translate(1491.30 896.56) scale(-0.7985 0.7985)"/>
  <use href="#cloud" transform="translate(244.65 -14.60) scale(-0.7461 0.7461)"/>
  <use href="#cloud" transform="translate(244.65 1185.40) scale(-0.7461 0.7461)"/>
  <use href="#cloud" transform="translate(-134.75 1026.84) scale(0.6976)"/>
  <use href="#cloud" transform="translate(1465.25 1026.84) scale(0.6976)"/>
  <use href="#cloud" transform="translate(269.26 392.84) scale(-0.6973 0.6973)"/>
  <use href="#cloud" transform="translate(1279.88 190.29) scale(-0.6335 0.6335)"/>
  <use href="#cloud" transform="translate(1481.72 447.21) scale(-0.6191 0.6191)"/>
  <use href="#cloud" transform="translate(988.91 822.32) scale(0.5943)"/>
  <use href="#cloud" transform="translate(1520.82 742.42) scale(-0.5898 0.5898)"/>
  <use href="#cloud" transform="translate(1010.28 595.21) scale(-0.5267 0.5267)"/>
  <use href="#cloud" transform="translate(457.90 855.99) scale(-0.5150 0.5150)"/>
  <use href="#cloud" transform="translate(1015.35 1142.19) scale(0.4988)"/>
  <use href="#cloud" transform="translate(1097.29 1038.74) scale(0.4689)"/>
  <use href="#cloud" transform="translate(710.35 854.48) scale(0.4285)"/>
  <use href="#cloud" transform="translate(207.28 124.87) scale(-0.4054 0.4054)"/>
  <use href="#cloud" transform="translate(1446.58 187.95) scale(0.3476)"/>
  <use href="#cloud" transform="translate(799.97 696.47) scale(0.3401)"/>
  <use href="#cloud" transform="translate(28.14 507.42) scale(0.2927)"/>
  <use href="#cloud" transform="translate(1494.36 535.24) scale(-0.2450 0.2450)"/>
</svg>
